<?xml version="1.0" encoding="UTF-8" standalone="no"?><svg xmlns="http://www.w3.org/2000/svg" xmlns:xlink="http://www.w3.org/1999/xlink" contentScriptType="application/ecmascript" contentStyleType="text/css" height="777px" preserveAspectRatio="none" style="width:587px;height:777px;" version="1.1" viewBox="0 0 587 777" width="587px" zoomAndPan="magnify"><defs><filter height="300%" id="f1c0jprllkccm9" width="300%" x="-1" y="-1"><feGaussianBlur result="blurOut" stdDeviation="2.0"/><feColorMatrix in="blurOut" result="blurOut2" type="matrix" values="0 0 0 0 0 0 0 0 0 0 0 0 0 0 0 0 0 0 .4 0"/><feOffset dx="4.0" dy="4.0" in="blurOut2" result="blurOut3"/><feBlend in="SourceGraphic" in2="blurOut3" mode="normal"/></filter></defs><g><ellipse cx="389.5" cy="20" fill="#000000" filter="url(#f1c0jprllkccm9)" rx="10" ry="10" style="stroke:none;stroke-width:1.0;"/><rect fill="#FEFECE" filter="url(#f1c0jprllkccm9)" height="34.1328" rx="12.5" ry="12.5" style="stroke:#A80036;stroke-width:1.5;" width="49" x="365" y="50"/><text fill="#000000" font-family="sans-serif" font-size="12" lengthAdjust="spacing" textLength="29" x="375" y="71.6016">entry</text><path d="M135,100.8887 L135,141.5098 A0,0 0 0 0 135,141.5098 L339,141.5098 A0,0 0 0 0 339,141.5098 L339,125.1992 L359,121.1992 L339,117.1992 L339,110.8887 L329,100.8887 L135,100.8887 A0,0 0 0 0 135,100.8887 " fill="#FBFB77" filter="url(#f1c0jprllkccm9)" style="stroke:#A80036;stroke-width:1.0;"/><path d="M329,100.8887 L329,110.8887 L339,110.8887 L329,100.8887 " fill="#FBFB77" style="stroke:#A80036;stroke-width:1.0;"/><text fill="#000000" font-family="sans-serif" font-size="13" lengthAdjust="spacing" textLength="183" x="141" y="118.457">path: modules / relative path</text><text fill="#000000" font-family="sans-serif" font-size="13" lengthAdjust="spacing" textLength="146" x="141" y="133.7676">file: name / extensions</text><rect fill="#FEFECE" filter="url(#f1c0jprllkccm9)" height="34.1328" rx="12.5" ry="12.5" style="stroke:#A80036;stroke-width:1.5;" width="61" x="359" y="104.1328"/><text fill="#000000" font-family="sans-serif" font-size="12" lengthAdjust="spacing" textLength="41" x="369" y="125.7344">resolve</text><rect fill="#FEFECE" filter="url(#f1c0jprllkccm9)" height="34.1328" rx="12.5" ry="12.5" style="stroke:#A80036;stroke-width:1.5;" width="129" x="325" y="161.5098"/><text fill="#000000" font-family="sans-serif" font-size="12" lengthAdjust="spacing" textLength="109" x="335" y="183.1113">filter by extensions</text><path d="M10,307.5313 L10,348.1523 L187,348.1523 L187,317.5313 L177,307.5313 L10,307.5313 " fill="#FBFB77" filter="url(#f1c0jprllkccm9)" style="stroke:#A80036;stroke-width:1.0;"/><path d="M177,307.5313 L177,317.5313 L187,317.5313 L177,307.5313 " fill="#FBFB77" style="stroke:#A80036;stroke-width:1.0;"/><text fill="#000000" font-family="sans-serif" font-size="13" lengthAdjust="spacing" textLength="156" x="16" y="325.0996">css can also be exported</text><text fill="#000000" font-family="sans-serif" font-size="13" lengthAdjust="spacing" textLength="94" x="16" y="340.4102">to a single file.</text><rect fill="#000000" filter="url(#f1c0jprllkccm9)" height="6" rx="2.5" ry="2.5" style="stroke:#000000;stroke-width:1.0;" width="363" x="207" y="215.6426"/><rect fill="#FEFECE" filter="url(#f1c0jprllkccm9)" height="34.1328" rx="12.5" ry="12.5" style="stroke:#A80036;stroke-width:1.5;" width="77" x="225" y="276.209"/><text fill="#0000FF" font-family="sans-serif" font-size="12" lengthAdjust="spacing" textLength="57" x="235" y="297.8105">typescript</text><rect fill="#FEFECE" filter="url(#f1c0jprllkccm9)" height="34.1328" rx="12.5" ry="12.5" style="stroke:#A80036;stroke-width:1.5;" width="85" x="221" y="345.3418"/><text fill="#000000" font-family="sans-serif" font-size="12" lengthAdjust="spacing" textLength="65" x="231" y="366.9434">swc-loader</text><rect fill="#FEFECE" filter="url(#f1c0jprllkccm9)" height="34.1328" rx="12.5" ry="12.5" style="stroke:#A80036;stroke-width:1.5;" width="76" x="341" y="241.6426"/><text fill="#0000FF" font-family="sans-serif" font-size="12" lengthAdjust="spacing" textLength="56" x="351" y="263.2441">css / scss</text><rect fill="#FEFECE" filter="url(#f1c0jprllkccm9)" height="34.1328" rx="12.5" ry="12.5" style="stroke:#A80036;stroke-width:1.5;" width="82" x="338" y="310.7754"/><text fill="#000000" font-family="sans-serif" font-size="12" lengthAdjust="spacing" textLength="62" x="348" y="332.377">css-loader</text><rect fill="#FEFECE" filter="url(#f1c0jprllkccm9)" height="34.1328" rx="12.5" ry="12.5" style="stroke:#A80036;stroke-width:1.5;" width="90" x="334" y="379.9082"/><text fill="#000000" font-family="sans-serif" font-size="12" lengthAdjust="spacing" textLength="70" x="344" y="401.5098">style-loader</text><rect fill="#FEFECE" filter="url(#f1c0jprllkccm9)" height="34.1328" rx="12.5" ry="12.5" style="stroke:#A80036;stroke-width:1.5;" width="77" x="466.5" y="276.209"/><text fill="#0000FF" font-family="sans-serif" font-size="12" lengthAdjust="spacing" textLength="57" x="476.5" y="297.8105">img / font</text><rect fill="#FEFECE" filter="url(#f1c0jprllkccm9)" height="34.1328" rx="12.5" ry="12.5" style="stroke:#A80036;stroke-width:1.5;" width="106" x="452" y="345.3418"/><text fill="#000000" font-family="sans-serif" font-size="12" lengthAdjust="spacing" textLength="86" x="462" y="366.9434">asset/resource</text><rect fill="#000000" filter="url(#f1c0jprllkccm9)" height="6" rx="2.5" ry="2.5" style="stroke:#000000;stroke-width:1.0;" width="363" x="207" y="434.041"/><path d="M177,464.4521 L177,489.7627 A0,0 0 0 0 177,489.7627 L339,489.7627 A0,0 0 0 0 339,489.7627 L339,482.4521 L359,477.1074 L339,474.4521 L339,474.4521 L329,464.4521 L177,464.4521 A0,0 0 0 0 177,464.4521 " fill="#FBFB77" filter="url(#f1c0jprllkccm9)" style="stroke:#A80036;stroke-width:1.0;"/><path d="M329,464.4521 L329,474.4521 L339,474.4521 L329,464.4521 " fill="#FBFB77" style="stroke:#A80036;stroke-width:1.0;"/><text fill="#000000" font-family="sans-serif" font-size="13" lengthAdjust="spacing" textLength="141" x="183" y="482.0205">inject assets into html</text><rect fill="#FEFECE" filter="url(#f1c0jprllkccm9)" height="34.1328" rx="12.5" ry="12.5" style="stroke:#A80036;stroke-width:1.5;" width="61" x="359" y="460.041"/><text fill="#000000" font-family="sans-serif" font-size="12" lengthAdjust="spacing" textLength="41" x="369" y="481.6426">plugins</text><path d="M139,504.1738 L139,560.1055 A0,0 0 0 0 139,560.1055 L324,560.1055 A0,0 0 0 0 324,560.1055 L324,536.1396 L344,532.1396 L324,528.1396 L324,514.1738 L314,504.1738 L139,504.1738 A0,0 0 0 0 139,504.1738 " fill="#FBFB77" filter="url(#f1c0jprllkccm9)" style="stroke:#A80036;stroke-width:1.0;"/><path d="M314,504.1738 L314,514.1738 L324,514.1738 L314,504.1738 " fill="#FBFB77" style="stroke:#A80036;stroke-width:1.0;"/><text fill="#000000" font-family="sans-serif" font-size="13" lengthAdjust="spacing" textLength="164" x="145" y="521.7422">when mode is production,</text><text fill="#000000" font-family="sans-serif" font-size="13" lengthAdjust="spacing" textLength="130" x="145" y="537.0527">compress JavaScript,</text><text fill="#000000" font-family="sans-serif" font-size="13" lengthAdjust="spacing" textLength="79" x="145" y="552.3633">and CSS too.</text><rect fill="#FEFECE" filter="url(#f1c0jprllkccm9)" height="34.1328" rx="12.5" ry="12.5" style="stroke:#A80036;stroke-width:1.5;" width="91" x="344" y="515.0732"/><text fill="#000000" font-family="sans-serif" font-size="12" lengthAdjust="spacing" textLength="71" x="354" y="536.6748">optimization</text><rect fill="#FEFECE" filter="url(#f1c0jprllkccm9)" height="34.1328" rx="12.5" ry="12.5" style="stroke:#A80036;stroke-width:1.5;" width="57" x="361" y="580.1055"/><text fill="#000000" font-family="sans-serif" font-size="12" lengthAdjust="spacing" textLength="37" x="371" y="601.707">output</text><rect fill="#000000" filter="url(#f1c0jprllkccm9)" height="6" rx="2.5" ry="2.5" style="stroke:#000000;stroke-width:1.0;" width="298" x="240.5" y="634.2383"/><rect fill="#FEFECE" filter="url(#f1c0jprllkccm9)" height="34.1328" rx="12.5" ry="12.5" style="stroke:#A80036;stroke-width:1.5;" width="60" x="254.5" y="660.2383"/><text fill="#000000" font-family="sans-serif" font-size="12" lengthAdjust="spacing" textLength="40" x="264.5" y="681.8398">bundle</text><rect fill="#FEFECE" filter="url(#f1c0jprllkccm9)" height="34.1328" rx="12.5" ry="12.5" style="stroke:#A80036;stroke-width:1.5;" width="88" x="342.5" y="660.2383"/><text fill="#000000" font-family="sans-serif" font-size="12" lengthAdjust="spacing" textLength="68" x="352.5" y="681.8398">source map</text><rect fill="#FEFECE" filter="url(#f1c0jprllkccm9)" height="34.1328" rx="12.5" ry="12.5" style="stroke:#A80036;stroke-width:1.5;" width="66" x="458.5" y="660.2383"/><text fill="#000000" font-family="sans-serif" font-size="12" lengthAdjust="spacing" textLength="46" x="468.5" y="681.8398">LICENSE</text><rect fill="#000000" filter="url(#f1c0jprllkccm9)" height="6" rx="2.5" ry="2.5" style="stroke:#000000;stroke-width:1.0;" width="298" x="240.5" y="714.3711"/><ellipse cx="389.5" cy="750.3711" fill="#FFFFFF" filter="url(#f1c0jprllkccm9)" rx="10" ry="10" style="stroke:#000000;stroke-width:1.5;"/><line style="stroke:#000000;stroke-width:2.5;" x1="383.3128" x2="395.6872" y1="744.1839" y2="756.5583"/><line style="stroke:#000000;stroke-width:2.5;" x1="395.6872" x2="383.3128" y1="744.1839" y2="756.5583"/><line style="stroke:#A80036;stroke-width:1.5;" x1="389.5" x2="389.5" y1="30" y2="50"/><polygon fill="#A80036" points="385.5,40,389.5,50,393.5,40,389.5,44" style="stroke:#A80036;stroke-width:1.0;"/><line style="stroke:#A80036;stroke-width:1.5;" x1="389.5" x2="389.5" y1="84.1328" y2="104.1328"/><polygon fill="#A80036" points="385.5,94.1328,389.5,104.1328,393.5,94.1328,389.5,98.1328" style="stroke:#A80036;stroke-width:1.0;"/><line style="stroke:#A80036;stroke-width:1.5;" x1="389.5" x2="389.5" y1="138.2656" y2="161.5098"/><polygon fill="#A80036" points="385.5,151.5098,389.5,161.5098,393.5,151.5098,389.5,155.5098" style="stroke:#A80036;stroke-width:1.0;"/><line style="stroke:#A80036;stroke-width:1.5;" x1="263.5" x2="263.5" y1="310.3418" y2="345.3418"/><polygon fill="#A80036" points="259.5,335.3418,263.5,345.3418,267.5,335.3418,263.5,339.3418" style="stroke:#A80036;stroke-width:1.0;"/><line style="stroke:#A80036;stroke-width:1.5;" x1="379" x2="379" y1="275.7754" y2="310.7754"/><polygon fill="#A80036" points="375,300.7754,379,310.7754,383,300.7754,379,304.7754" style="stroke:#A80036;stroke-width:1.0;"/><line style="stroke:#A80036;stroke-width:1.5;" x1="379" x2="379" y1="344.9082" y2="379.9082"/><polygon fill="#A80036" points="375,369.9082,379,379.9082,383,369.9082,379,373.9082" style="stroke:#A80036;stroke-width:1.0;"/><line style="stroke:#A80036;stroke-width:1.5;" x1="505" x2="505" y1="310.3418" y2="345.3418"/><polygon fill="#A80036" points="501,335.3418,505,345.3418,509,335.3418,505,339.3418" style="stroke:#A80036;stroke-width:1.0;"/><line style="stroke:#A80036;stroke-width:1.5;" x1="263.5" x2="263.5" y1="221.6426" y2="276.209"/><polygon fill="#A80036" points="259.5,266.209,263.5,276.209,267.5,266.209,263.5,270.209" style="stroke:#A80036;stroke-width:1.0;"/><line style="stroke:#A80036;stroke-width:1.5;" x1="379" x2="379" y1="221.6426" y2="241.6426"/><polygon fill="#A80036" points="375,231.6426,379,241.6426,383,231.6426,379,235.6426" style="stroke:#A80036;stroke-width:1.0;"/><line style="stroke:#A80036;stroke-width:1.5;" x1="505" x2="505" y1="221.6426" y2="276.209"/><polygon fill="#A80036" points="501,266.209,505,276.209,509,266.209,505,270.209" style="stroke:#A80036;stroke-width:1.0;"/><line style="stroke:#A80036;stroke-width:1.5;" x1="263.5" x2="263.5" y1="379.4746" y2="434.041"/><polygon fill="#A80036" points="259.5,424.041,263.5,434.041,267.5,424.041,263.5,428.041" style="stroke:#A80036;stroke-width:1.0;"/><line style="stroke:#A80036;stroke-width:1.5;" x1="379" x2="379" y1="414.041" y2="434.041"/><polygon fill="#A80036" points="375,424.041,379,434.041,383,424.041,379,428.041" style="stroke:#A80036;stroke-width:1.0;"/><line style="stroke:#A80036;stroke-width:1.5;" x1="505" x2="505" y1="379.4746" y2="434.041"/><polygon fill="#A80036" points="501,424.041,505,434.041,509,424.041,505,428.041" style="stroke:#A80036;stroke-width:1.0;"/><line style="stroke:#A80036;stroke-width:1.5;" x1="389.5" x2="389.5" y1="195.6426" y2="215.6426"/><polygon fill="#A80036" points="385.5,205.6426,389.5,215.6426,393.5,205.6426,389.5,209.6426" style="stroke:#A80036;stroke-width:1.0;"/><line style="stroke:#A80036;stroke-width:1.5;" x1="389.5" x2="389.5" y1="440.041" y2="460.041"/><polygon fill="#A80036" points="385.5,450.041,389.5,460.041,393.5,450.041,389.5,454.041" style="stroke:#A80036;stroke-width:1.0;"/><line style="stroke:#A80036;stroke-width:1.5;" x1="389.5" x2="389.5" y1="494.1738" y2="515.0732"/><polygon fill="#A80036" points="385.5,505.0732,389.5,515.0732,393.5,505.0732,389.5,509.0732" style="stroke:#A80036;stroke-width:1.0;"/><line style="stroke:#A80036;stroke-width:1.5;" x1="389.5" x2="389.5" y1="549.2061" y2="580.1055"/><polygon fill="#A80036" points="385.5,570.1055,389.5,580.1055,393.5,570.1055,389.5,574.1055" style="stroke:#A80036;stroke-width:1.0;"/><line style="stroke:#A80036;stroke-width:1.5;" x1="284.5" x2="284.5" y1="640.2383" y2="660.2383"/><polygon fill="#A80036" points="280.5,650.2383,284.5,660.2383,288.5,650.2383,284.5,654.2383" style="stroke:#A80036;stroke-width:1.0;"/><line style="stroke:#A80036;stroke-width:1.5;" x1="386.5" x2="386.5" y1="640.2383" y2="660.2383"/><polygon fill="#A80036" points="382.5,650.2383,386.5,660.2383,390.5,650.2383,386.5,654.2383" style="stroke:#A80036;stroke-width:1.0;"/><line style="stroke:#A80036;stroke-width:1.5;" x1="491.5" x2="491.5" y1="640.2383" y2="660.2383"/><polygon fill="#A80036" points="487.5,650.2383,491.5,660.2383,495.5,650.2383,491.5,654.2383" style="stroke:#A80036;stroke-width:1.0;"/><line style="stroke:#A80036;stroke-width:1.5;" x1="284.5" x2="284.5" y1="694.3711" y2="714.3711"/><polygon fill="#A80036" points="280.5,704.3711,284.5,714.3711,288.5,704.3711,284.5,708.3711" style="stroke:#A80036;stroke-width:1.0;"/><line style="stroke:#A80036;stroke-width:1.5;" x1="386.5" x2="386.5" y1="694.3711" y2="714.3711"/><polygon fill="#A80036" points="382.5,704.3711,386.5,714.3711,390.5,704.3711,386.5,708.3711" style="stroke:#A80036;stroke-width:1.0;"/><line style="stroke:#A80036;stroke-width:1.5;" x1="491.5" x2="491.5" y1="694.3711" y2="714.3711"/><polygon fill="#A80036" points="487.5,704.3711,491.5,714.3711,495.5,704.3711,491.5,708.3711" style="stroke:#A80036;stroke-width:1.0;"/><line style="stroke:#A80036;stroke-width:1.5;" x1="389.5" x2="389.5" y1="614.2383" y2="634.2383"/><polygon fill="#A80036" points="385.5,624.2383,389.5,634.2383,393.5,624.2383,389.5,628.2383" style="stroke:#A80036;stroke-width:1.0;"/><line style="stroke:#A80036;stroke-width:1.5;" x1="389.5" x2="389.5" y1="720.3711" y2="740.3711"/><polygon fill="#A80036" points="385.5,730.3711,389.5,740.3711,393.5,730.3711,389.5,734.3711" style="stroke:#A80036;stroke-width:1.0;"/><!--MD5=[33ab7e696e5641a505ded55728f0e29b]
@startuml webpack

start
:entry;
:resolve;
note
  path: modules / relative path
  file: name / extensions
end note
:filter by extensions;
fork
:<font color=blue>typescript</font>;
:swc-loader;
fork again
:<font color=blue>css / scss</font>;
:css-loader;
:style-loader;
fork again
:<font color=blue>img / font</font>;
:asset/resource;
end fork
note
css can also be exported
to a single file.
end note
:plugins;
note
  inject assets into html
end note
:optimization;
note
when mode is production,
compress JavaScript,
and CSS too.
end note
:output;
fork
:bundle;
fork again
:source map;
fork again
:LICENSE;
end fork

end

@enduml

PlantUML version 1.2021.00(Sun Jan 10 18:25:05 CST 2021)
(GPL source distribution)
Java Runtime: OpenJDK Runtime Environment
JVM: OpenJDK 64-Bit Server VM
Default Encoding: UTF-8
Language: zh
Country: AL
--></g></svg>